<?xml version="1.0" encoding="utf-8"?>
<svg 
  x="0px" 
  y="0px"
  width="24px"
  height="24px"
  viewBox="0 0 24 24"
  version="1.1"
  xmlns="http://www.w3.org/2000/svg">

  <style>
    g { display: none }
    g:target { display: inline } 
  </style>
  
  <symbol id="bookmark-passive" viewBox="0 0 24 24"><path d="M0 0h24v24H0V0z" fill="none"/><path d="M17 3H7c-1.1 0-2 .9-2 2v16l7-3 7 3V5c0-1.1-.9-2-2-2zm0 15l-5-2.18L7 18V5h10v13z" fill="#FFFFFF"/></symbol>

  <symbol id="bookmark-active" viewBox="0 0 24 24"><path d="M0 0h24v24H0V0z" fill="none"/><path d="M17 3H7c-1.1 0-2 .9-2 2v16l7-3 7 3V5c0-1.1-.9-2-2-2z" fill="#FFFFFF"/></symbol>

  <symbol id="star-active" viewBox="0 0 24 24"><path d="M0 0h24v24H0z" fill="none"/><path d="M0 0h24v24H0z" fill="none"/><path d="M12 17.27L18.18 21l-1.64-7.03L22 9.24l-7.19-.61L12 2 9.19 8.63 2 9.24l5.46 4.73L5.82 21z"/></symbol>

  <symbol id="star-passive" viewBox="0 0 24 24"><path d="M0 0h24v24H0z" fill="none"/><path d="M22 9.24l-7.19-.62L12 2 9.19 8.63 2 9.24l5.46 4.73L5.82 21 12 17.27 18.18 21l-1.63-7.03L22 9.24zM12 15.4l-3.76 2.27 1-4.28-3.32-2.88 4.38-.38L12 6.1l1.71 4.04 4.38.38-3.32 2.88 1 4.28L12 15.4z"/></symbol>

  <symbol id="share" viewBox="0 0 24 24"><path d="M0 0h24v24H0z" fill="none"/><path d="M18 16.08c-.76 0-1.44.3-1.96.77L8.91 12.7c.05-.23.09-.46.09-.7s-.04-.47-.09-.7l7.05-4.11c.54.5 1.25.81 2.04.81 1.66 0 3-1.34 3-3s-1.34-3-3-3-3 1.34-3 3c0 .24.04.47.09.7L8.04 9.81C7.5 9.31 6.79 9 6 9c-1.66 0-3 1.34-3 3s1.34 3 3 3c.79 0 1.5-.31 2.04-.81l7.12 4.16c-.05.21-.08.43-.08.65 0 1.61 1.31 2.92 2.92 2.92 1.61 0 2.92-1.31 2.92-2.92s-1.31-2.92-2.92-2.92z" fill="#FFFFFF"/></symbol>

  <symbol id="chevron-down" viewBox="0 0 24 24"><path d="M0 0h24v24H0z" fill="none"/><path d="M16.59 8.59L12 13.17 7.41 8.59 6 10l6 6 6-6z" fill="#FFFFFF"/></symbol>

  <symbol id="chevron-down-black" viewBox="0 0 24 24"><path d="M0 0h24v24H0z" fill="none"/><path d="M16.59 8.59L12 13.17 7.41 8.59 6 10l6 6 6-6z" fill="#000000"/></symbol>

  <symbol id="search" viewBox="0 0 24 24"><path d="M0 0h24v24H0z" fill="none"/><path d="M15.5 14h-.79l-.28-.27C15.41 12.59 16 11.11 16 9.5 16 5.91 13.09 3 9.5 3S3 5.91 3 9.5 5.91 16 9.5 16c1.61 0 3.09-.59 4.23-1.57l.27.28v.79l5 4.99L20.49 19l-4.99-5zm-6 0C7.01 14 5 11.99 5 9.5S7.01 5 9.5 5 14 7.01 14 9.5 11.99 14 9.5 14z" fill="#FFFFFF"/></symbol>

  <symbol id="edit" viewBox="0 0 24 24"><path d="M0 0h24v24H0z" fill="none"/><path d="M3 17.25V21h3.75L17.81 9.94l-3.75-3.75L3 17.25zM20.71 7.04c.39-.39.39-1.02 0-1.41l-2.34-2.34c-.39-.39-1.02-.39-1.41 0l-1.83 1.83 3.75 3.75 1.83-1.83z" fill="#FFFFFF"/></symbol>

  <symbol id="delete" viewBox="0 0 24 24"><path d="M0 0h24v24H0z" fill="none"/><path d="M0 0h24v24H0z" fill="none"/><path d="M6 19c0 1.1.9 2 2 2h8c1.1 0 2-.9 2-2V7H6v12zM19 4h-3.5l-1-1h-5l-1 1H5v2h14V4z"/></symbol>

  <symbol id="tilda" viewBox="0 0 24 24"><path fill="none" d="M-1-1h26v26H-1z"/><path stroke="null" d="M7.925 9.507c-.288.03-.413.046-.543.072-1.162.239-2.097.981-3.338 2.653l-.216.29v.11l.001.111.967.573 1.045.618.079.046.117-.177c.74-1.102 1.248-1.517 1.978-1.616.443-.06 1.048-.01 1.568.133.317.087.576.2 1.114.48.621.328 1.748.892 2.052 1.03.765.346 1.336.53 1.882.606.476.067 1.198.082 1.593.033 1.188-.147 2.123-.78 3.265-2.21.286-.358.68-.893.683-.925.002-.021-.268-.185-1.617-.983-.296-.175-.545-.32-.551-.326-.007-.003-.07.08-.141.187-.072.106-.198.284-.281.397-.694.932-1.197 1.227-2.094 1.227a4.344 4.344 0 01-1.622-.317c-.098-.04-.437-.21-.756-.377-2.253-1.18-3.051-1.5-4.016-1.604a12.278 12.278 0 00-1.17-.031h0z" fill="#FFFFFF"/></symbol>

  <symbol id="plus" viewBox="0 0 24 24"><path d="M0 0h24v24H0z" fill="none"/><path d="M19 13h-6v6h-2v-6H5v-2h6V5h2v6h6v2z"/></symbol>

  <symbol id="favourite" viewBox="0 0 24 24"><path d="M0 0h24v24H0z" fill="none"/><path d="M12 21.35l-1.45-1.32C5.4 15.36 2 12.28 2 8.5 2 5.42 4.42 3 7.5 3c1.74 0 3.41.81 4.5 2.09C13.09 3.81 14.76 3 16.5 3 19.58 3 22 5.42 22 8.5c0 3.78-3.4 6.86-8.55 11.54L12 21.35z" fill="#FFFFFF"/></symbol>

  <symbol id="link" viewBox="0 0 24 24"><path d="M0 0h24v24H0z" fill="none"/><path d="M3.9 12c0-1.71 1.39-3.1 3.1-3.1h4V7H7c-2.76 0-5 2.24-5 5s2.24 5 5 5h4v-1.9H7c-1.71 0-3.1-1.39-3.1-3.1zM8 13h8v-2H8v2zm9-6h-4v1.9h4c1.71 0 3.1 1.39 3.1 3.1s-1.39 3.1-3.1 3.1h-4V17h4c2.76 0 5-2.24 5-5s-2.24-5-5-5z" fill="#FFFFFF"/></symbol>

  <symbol id="close" viewBox="0 0 24 24"><path d="M0 0h24v24H0z" fill="none"/><path d="M19 6.41L17.59 5 12 10.59 6.41 5 5 6.41 10.59 12 5 17.59 6.41 19 12 13.41 17.59 19 19 17.59 13.41 12z"/></symbol>

  <symbol id="cancel" viewBox="0 0 24 24"><path d="M0 0h24v24H0z" fill="none"/><path d="M12 2C6.48 2 2 6.48 2 12s4.48 10 10 10 10-4.48 10-10S17.52 2 12 2zm0 18c-4.42 0-8-3.58-8-8 0-1.85.63-3.55 1.69-4.9L16.9 18.31C15.55 19.37 13.85 20 12 20zm6.31-3.1L7.1 5.69C8.45 4.63 10.15 4 12 4c4.42 0 8 3.58 8 8 0 1.85-.63 3.55-1.69 4.9z"/></symbol>

  <symbol id="add" viewBox="0 0 24 24"><path d="M0 0h24v24H0z" fill="none"/><path d="M19 13h-6v6h-2v-6H5v-2h6V5h2v6h6v2z"/></symbol>

  <symbol id="confirm" viewBox="0 0 24 24"><path d="M0 0h24v24H0z" fill="none"/><path d="M9 16.17L4.83 12l-1.42 1.41L9 19 21 7l-1.41-1.41z"/></symbol>

  <symbol id="star-passive-w" viewBox="0 0 24 24"><path d='M0 0h24v24H0z' fill='none'/><path d='M22 9.24l-7.19-.62L12 2 9.19 8.63 2 9.24l5.46 4.73L5.82 21 12 17.27 18.18 21l-1.63-7.03L22 9.24zM12 15.4l-3.76 2.27 1-4.28-3.32-2.88 4.38-.38L12 6.1l1.71 4.04 4.38.38-3.32 2.88 1 4.28L12 15.4z' fill='white' /></symbol>

  <symbol id="star-active-w" viewBox="0 0 24 24"><path d='M0 0h24v24H0z' fill='none'/><path d='M0 0h24v24H0z' fill='none'/><path d='M12 17.27L18.18 21l-1.64-7.03L22 9.24l-7.19-.61L12 2 9.19 8.63 2 9.24l5.46 4.73L5.82 21z' fill='white'/></symbol>

  <g id="star-passive-b"><path d='M0 0h24v24H0z' fill='none'/><path d='M22 9.24l-7.19-.62L12 2 9.19 8.63 2 9.24l5.46 4.73L5.82 21 12 17.27 18.18 21l-1.63-7.03L22 9.24zM12 15.4l-3.76 2.27 1-4.28-3.32-2.88 4.38-.38L12 6.1l1.71 4.04 4.38.38-3.32 2.88 1 4.28L12 15.4z' fill='#D5D5D5'/></g>

  <g id="star-hovered-b"><path d='M0 0h24v24H0z' fill='none'/><path d='M0 0h24v24H0z' fill='none'/><path d='M12 17.27L18.18 21l-1.64-7.03L22 9.24l-7.19-.61L12 2 9.19 8.63 2 9.24l5.46 4.73L5.82 21z' fill='#D5D5D5'/></g>

  <g id="star-active-b"><path d='M0 0h24v24H0z' fill='none'/><path d='M0 0h24v24H0z' fill='none'/><path d='M12 17.27L18.18 21l-1.64-7.03L22 9.24l-7.19-.61L12 2 9.19 8.63 2 9.24l5.46 4.73L5.82 21z' fill='#900C3F'/></g>

  <g id="favourite-passive"><path d="M0 0h24v24H0z" fill="none"/><path d="M16.5 3c-1.74 0-3.41.81-4.5 2.09C10.91 3.81 9.24 3 7.5 3 4.42 3 2 5.42 2 8.5c0 3.78 3.4 6.86 8.55 11.54L12 21.35l1.45-1.32C18.6 15.36 22 12.28 22 8.5 22 5.42 19.58 3 16.5 3zm-4.4 15.55l-.1.1-.1-.1C7.14 14.24 4 11.39 4 8.5 4 6.5 5.5 5 7.5 5c1.54 0 3.04.99 3.57 2.36h1.87C13.46 5.99 14.96 5 16.5 5c2 0 3.5 1.5 3.5 3.5 0 2.89-3.14 5.74-7.9 10.05z" fill="#D5D5D5"/></g>

  <g id="favourite-hovered"><path d="M0 0h24v24H0z" fill="none"/><path d="M12 21.35l-1.45-1.32C5.4 15.36 2 12.28 2 8.5 2 5.42 4.42 3 7.5 3c1.74 0 3.41.81 4.5 2.09C13.09 3.81 14.76 3 16.5 3 19.58 3 22 5.42 22 8.5c0 3.78-3.4 6.86-8.55 11.54L12 21.35z" fill="#D5D5D5"/></g>

  <g id="favourite-active"><path d="M0 0h24v24H0z" fill="none"/><path d="M12 21.35l-1.45-1.32C5.4 15.36 2 12.28 2 8.5 2 5.42 4.42 3 7.5 3c1.74 0 3.41.81 4.5 2.09C13.09 3.81 14.76 3 16.5 3 19.58 3 22 5.42 22 8.5c0 3.78-3.4 6.86-8.55 11.54L12 21.35z" fill="#900C3F"/></g>

  <g id='checkbox'><path d="M0 0h24v24H0z" fill="none"/><path d="M9 16.17L4.83 12l-1.42 1.41L9 19 21 7l-1.41-1.41z" fill="#900C3F"/></g>

  <symbol id="steam" viewBox="0 0 24 24"><path d="M12 2C6.5 2 2 6.5 2 12s4.5 10 10 10 10-4.5 10-10S17.5 2 12 2zm0 18.3c-3.9 0-7.3-2.8-8.1-6.5L7 15.2c.2 1 1.1 1.8 2.2 1.8 1.2 0 2.2-1 2.2-2.2l2.6-1.9c1.6 0 3-1.3 3-2.9 0-1.7-1.3-3-2.9-3-1.6 0-2.9 1.3-2.9 2.9l-1.9 2.6c-.5 0-.9.1-1.3.4l-4.3-1.8c.5-4.2 4-7.4 8.3-7.4 4.6 0 8.3 3.7 8.3 8.3s-3.7 8.3-8.3 8.3zm-2.3-6.7l-1.1-.5c.2 0 .4-.1.6-.1.9 0 1.7.8 1.7 1.7 0 1-.8 1.7-1.7 1.8-.7 0-1.3-.4-1.6-1l1.1.5c.6.3 1.4 0 1.6-.7.3-.7 0-1.4-.6-1.7zm2.4-3.7c0-1.1.9-2 2-2s2 .9 2 2-.9 2-2 2-2-.9-2-2zm2 1.5c-.8 0-1.5-.7-1.5-1.5s.7-1.5 1.5-1.5 1.5.7 1.5 1.5c0 .9-.7 1.5-1.5 1.5z"/></symbol>

  <symbol id="origin" viewBox="0 0 24 24"><path d="M12.3 1.5c-1.2.4-2.4 1-3.4 1.8-.5.3-.9.6-1.4 1.1-1.7 1.7-2.8 3.8-3.2 6.1-.1.6-.1 1-.1 1.5s0 .7.1 1c.3 2.3 1.6 4.3 3.5 5.5 1.1.7 2.2 1.1 3.6 1.2h1.2c.2 0 .2 0 0 .2-.4.5-.8 1-1.3 1.2-.1 0-.2.1-.2.1l.4 1.3s.5-.1.7-.2c2.6-.9 4.9-2.9 6.3-5.4.7-1.4 1.2-2.8 1.3-4.2v-1.3c-.1-.6-.1-1-.3-1.5-.6-2.2-2.2-4-4.3-4.9-.8-.4-1.6-.6-2.6-.7h-1.2c-.2 0-.2 0 0-.2.4-.5.8-1 1.3-1.2.1 0 .2-.1.2-.1-.3-.9-.4-1.3-.4-1.3 0-.1-.1-.1-.2 0zM9.6 4.6c-.1.3-.4 1.5-.4 1.5l.8-.2c1-.2 1.2-.3 1.6-.3 1.1-.1 2.2.2 3.2.6 1.8.9 3.1 2.6 3.5 4.6.2 1.3 0 2.9-.5 4.3-.4.9-1 1.9-1.6 2.7-.5.6-1.1 1.2-1.7 1.6-.1.1-.2.1-.2.1s0-.1.1-.2l.5-1.5-.8.2c-1 .2-1.2.3-1.6.3-1.1.1-2.2-.2-3.2-.6-1.8-.9-3.1-2.6-3.5-4.6-.1-.6-.1-1.3 0-2C6 9.2 6.9 7.3 8.3 5.7c.2-.3.7-.7 1-.9.2-.2.5-.4.5-.4-.1 0-.1.1-.2.2z"/><path d="M11.7 8.5c-.9.1-1.6.4-2.2 1-.5.5-.9 1.2-1 2v1c.1.8.5 1.5 1 2s1.2.9 2 1h1c.8-.1 1.5-.5 2-1s.9-1.2 1-2v-1c-.1-.8-.5-1.5-1-2s-1.2-.9-2-1h-.8zm.7 1.4c.8.2 1.4.7 1.6 1.4.1.3.1.4.1.7s0 .4-.1.7c-.2.6-.7 1.1-1.3 1.3-.3.1-.4.1-.7.1h-.4c-.4-.1-.8-.3-1.1-.6-.3-.3-.5-.7-.6-1.1v-.8c.1-.4.3-.8.6-1.1.3-.3.7-.5 1.2-.6h.7z"/></symbol>

  <symbol id="uplay" viewBox="0 0 24 24"><path d="M9.4 2c-1 .4-1.2 1.7-.5 2.5.2.2.5.4.8.4 1 .2 1.9-.7 1.8-1.8-.1-.3-.2-.6-.4-.8-.3-.3-.6-.4-1-.4-.3 0-.4 0-.7.1zM4.6 3.9c-.7.2-1.4.8-1.8 1.5-.3.6-.4 1-.4 1.7 0 .6 0 .7.1.9.5 1.2 1.7 2 3.1 2 1.3 0 2.3-.7 2.7-1.9.1-.4.2-1.3.2-1.6-.1-.8-.7-1.6-1.4-2-.7-.5-1.8-.8-2.5-.6zM6 5.8c.3.2.6.4.7.7.1.4-.1 1.1-.4 1.4-.6.4-1.3.4-1.8-.1-.3-.2-.4-.5-.3-.8.1-.5.4-1 .8-1.2.2-.2.7-.2 1 0zM13.6 7c-3.3.4-6 3-6.9 6.4-.2 1-.3 2.3-.1 3 .4 1.9 2 3.6 4.4 4.7 2.1 1 4.1 1.2 5.6.7 1.7-.6 3.3-2.1 4.2-3.9.5-1.1.8-2.2.9-3.5.1-2.5-1.3-4.8-3.9-6.3-.9-.6-2-1-2.6-1.1-.4 0-1.3-.1-1.6 0zM15 9c.4.1 1.3.5 1.9 1 1.2.8 2.1 2 2.4 3 .3 1.2 0 3.1-.7 4.4-.9 1.6-2.3 2.6-3.7 2.7-1.8.1-4.6-1.2-5.7-2.6-.7-.9-.9-1.6-.8-2.7.2-2.6 1.9-4.8 4.4-5.6.9-.2 1.7-.3 2.2-.2z"/></symbol>

  <symbol id="battlenet" viewBox="0 0 24 24"><path d="M10.5 1.8c-.2 0-.3.1-.4.1l-.3.3c-.4.4-.6.9-.8 1.7-.1.4-.2 1-.2 1.4v.4l-.1-.2c-.1-.2-.3-.4-.4-.6-.3-.2-.5-.4-.8-.4-.2 0-.2 0-.4.1s-.4.3-.5.6c-.3.5-.4 1.3-.4 2.2v.3h-.3c-1.2.1-2.4.3-3.4.5-.3.1-.3.1-.4.2-.2.1-.3.2-.3.2H2c.7-.2 2.5-.3 3.4-.3h.8v.2c.1.7.3 1.6.6 2.5.1.3.3.7.3.9v.1s-.1.1-.1.2c-.9 1.4-1.6 2.9-1.8 4-.1.4-.1.9 0 1.1.1.3.2.6.4.8.5.5 1.5.5 2.8.1.3-.1.6-.2 1-.4l.3-.2-.1.2c-.1.2-.2.5-.3.7v.6c.1.3.3.5.6.6.2.1.6.1.9 0 .6-.1 1.3-.4 1.9-.8l.1-.1.1.2c.2.3.6.9.8 1.3.4.5.7.9 1 1.2.3.3.5.5.7.6.1 0 .2.1.2.1s0-.1-.1-.1c-.7-.8-1.5-2-2.2-3.3-.1-.1-.1-.2-.1-.2l.1-.1c.7-.5 1.6-1.4 2.4-2.5l.1-.2H18c2.1-.1 3.5-.6 3.8-1.4.1-.2.1-.3.1-.5v-.3c-.1-.5-.4-1-1-1.6-.4-.4-.8-.7-1.3-1l-.2-.1h.1c.7 0 1.1-.2 1.4-.4.2-.2.2-.3.2-.6 0-.2-.1-.3-.2-.5-.2-.4-.5-.8-1.1-1.2-.2-.1-.6-.4-.9-.6-.1-.1-.2-.1-.2-.1s.4-.9.5-1c.3-.5.8-1.9 1-2.5V3.2v.1c-.1.4-.3 1-.7 1.7-.4.8-1 1.9-1.2 2.1l-.2-.1c-.6-.2-1.2-.4-2-.6-.1 0-.7-.1-1.1-.1h-.1l-.2-.3c-.9-1.7-1.8-2.9-2.6-3.6-.3-.3-.7-.5-1.1-.6h-.5zm1.4 2.3c.5.1 1.2.8 1.9 1.9l.2.2h-1.1c-.9.1-1.6.3-2.3.6-.2.1-.3.2-.3.2s0-.5.1-.7c.1-1.1.5-1.9 1.1-2.2.1-.1.3-.1.4 0zM8.3 5.9c.1 0 .3.1.4.3.1.2.1.2.2.5 0 .1 0 .4.1.7v.5H7.4v-.2c0-.8.3-1.4.6-1.6 0-.3.2-.3.3-.2zm5.4 1c1.4.1 2.9.5 4.2 1.1l.2.1-.4.6-.4.6-.1-.1c-.3-.5-.8-1-1.2-1.3l-.6-.3h-.1.1c.2.3.4.4.6.7.3.3.4.5.6.7.1.1.2.5.2.5s-.1 0-.3-.1c-.6-.2-1.3-.4-2-.6-1-.3-2.6-.7-3.5-.8h-.2l-.1.1v.8l.3.1c2.3.5 4.6 1.3 6.2 2.1l.2.1v.2c0 1.1-.5 2.4-1.4 3.6-.6.8-1.4 1.6-2.3 2.3-.2.2-.6.4-.6.4l-.6-1.2-.1-.2h.1c.9 0 1.5-.2 2-.5.1 0 .2-.1.2-.2l.1-.1-.2.1c-.4.2-.9.3-1.3.4h-.9l.4-.4c.6-.5 1.1-1 1.6-1.5.9-.9 1.5-1.6 2.2-2.4l.2-.3s-.3-.2-.5-.4c-.1-.1-.2-.1-.2-.1l-.2.2c-.3.3-.7.7-1.1 1.2-1.3 1.3-2.7 2.4-3.8 3.1-.1.1-.2.1-.2.1l-.4-.2c-.8-.5-1.4-1.3-1.9-2.4-.6-1.1-1-2.6-1.2-4v-.5s.3 0 .8.1c.4 0 .8.1.8.1s0 .1-.1.3c-.4.3-.5.7-.6 1-.1.3 0 .9 0 1.1v.1-.1-.2c0-.2.1-.5.1-.7.2-.4.4-.8.6-1.1.1-.2.2-.2.2-.2s.1.2.1.5c.4 2.2 1 3.9 1.6 5.2.1.1.1.3.1.3l.7-.3s0-.2-.1-.3c-.5-1.7-.9-3.3-1.1-4.7-.1-.6-.1-1-.1-1.6v-.3l.1-.1c.8-.4 1.6-.6 2.3-.6.3-.1.6-.1 1 0zm5.1 1.6c.3.2.4.3.6.5.4.4.6.8.4 1.1-.1.1-.1.2-.2.2s-.1 0-.4.1H19l-.4-.2c-.3-.2-.7-.4-.9-.4l.1-.1c.3-.4.6-1 .7-1.1.1-.1.1-.2.1-.2.1 0 .1 0 .2.1zm-.9 3c.7.5 1.2.9 1.5 1.4.1.2.2.3.3.5.1.2.1.2.1.4s0 .3-.1.5c-.3.5-1.3.8-2.7.8h-.2s0-.1.1-.1c.5-.7.9-1.7 1-2.6 0-.2.1-.6.1-.7v-.2c-.2-.1-.1-.1-.1 0zM8 13.4c.3.5.6.9 1.1 1.4.4.4.7.7 1.1.9.1 0 .1.1.1.1s-.5.3-.7.3c-.5.2-.9.3-1.4.3-.6 0-.9-.1-1.2-.3-.1-.2-.2-.4-.2-.7 0-.2 0-.4.1-.7.1-.4.3-1 .6-1.6l.1-.2.2.1c0 .1.1.3.2.4zm4 3.8c.4.7.4.7.4.8-.1 0-.4.2-.6.3-.4.1-.6.2-.8.2h-.3c-.2-.1-.3-.1-.4-.3V18c0-.1 0-.3.1-.5s0-.1.6-.5c.2-.1.4-.3.5-.3l.1-.1c0-.1.2.2.4.6z"/></symbol>

  <symbol id="egs" viewBox="0 0 24 24"><path d="M5.2 1.8C3.7 1.8 2.5 3 2.5 4.5v14.7l9.6 2.9 9.6-2.9V4.6c0-1.5-1.2-2.7-2.7-2.7H5.2zm0 .9h13.7c1 0 1.8.8 1.8 1.8v14L12 21.2l-8.7-2.6v-14c0-1 .8-1.9 1.9-1.9zm.4 1.4c-.8 0-1.4.6-1.4 1.4v7.8c0 .8.6 1.4 1.4 1.4h1.8v-1.4H5.6V10H7V8.7H5.6V5.5h1.8V4.1H5.6zm2.7 0v10.5h1.4V10h1.4c.8 0 1.4-.6 1.4-1.4V5.5c0-.8-.6-1.4-1.4-1.4H8.3zm5.1 0v10.5h1.4V4.1h-1.4zm3.6 0c-.8 0-1.4.6-1.4 1.4v7.8c0 .8.6 1.4 1.4 1.4h1.4c.8 0 1.4-.6 1.4-1.4v-1.8h-1.4v1.8H17V5.5h1.4v1.8h1.4V5.5c0-.8-.6-1.4-1.4-1.4H17zM9.7 5.5h1.4v3.2H9.7V5.5zm-5 10c-.2 0-.5.2-.5.5v1.8c0 .3.2.5.5.5h1.8c.3 0 .5-.2.5-.5v-.9h-.9v.5h.5v.3c0 .1 0 .1-.1.1H4.8c-.1 0-.1 0-.1-.1v-1.6c0-.1 0-.1.1-.1h1.6c.1 0 .1.1.1.1v.3H7V16c0-.2-.2-.5-.5-.5H4.7zm4.1 0l-1.4 2.7h.5l.2-.5h1.8l.2.5h.5l-1.4-2.7h-.4zm2.3 0v2.7h.5v-1.8l.7 1.4h.5l.7-1.4v1.8h.5v-2.7h-.5l-.9 1.8-.9-1.8h-.6zm3.2 0v2.7h2.3v-.5h-1.8V17h.9v-.5h-.9V16h1.8v-.5h-2.3zm3.2 0c-.3 0-.5.2-.5.5v.7c0 .3.2.5.5.5h1.7c.1 0 .1 0 .1.1v.5c0 .1-.1.1-.1.1h-1.6c-.1 0-.1 0-.1-.1v-.1H17v.2c0 .3.2.5.5.5h1.8c.2 0 .5-.2.5-.5v-.7c0-.3-.2-.5-.5-.5h-1.7c-.1 0-.1-.1-.1-.1v-.5c0-.1 0-.1.1-.1h1.6c.1 0 .1.1.1.1v.1h.5V16c0-.2-.2-.5-.5-.5h-1.8zM9 16l.7 1.4H8.3L9 16z"/></symbol>

  <symbol id="gog" viewBox="0 0 24 24"><path d="M12.8 13.9H9.3c-.6 0-1.1.5-1.1 1.1v3.6c0 .6.5 1.1 1.1 1.1h3.5c.6 0 1.1-.5 1.1-1.1V15c0-.6-.5-1.1-1.1-1.1zm-.3 3.9c0 .2-.2.4-.4.4h-2c-.2 0-.4-.2-.4-.4v-2c0-.2.2-.4.4-.4h2c.2 0 .4.2.4.4v2zm1.3-13.4h-3.5c-.6 0-1.1.5-1.1 1.1V9c0 .6.5 1.1 1.1 1.1h3.5c.6 0 1.1-.5 1.1-1.1V5.4c0-.5-.5-1-1.1-1zm-.4 3.9c0 .2-.2.4-.4.4h-2c-.2 0-.4-.2-.4-.4v-2c0-.2.2-.4.4-.4h2c.2 0 .4.2.4.4v2zM22 19.6h-1.4v-4.3h-1c-.2 0-.4.2-.4.4v3.9h-1.4v-4.3h-.9c-.2 0-.5.2-.5.4v3.9H15V15c0-.6.5-1.1 1.1-1.1h6v5.7H22zm-14.8 0H3.1c-.6 0-1.1-.5-1.1-1.1V15c0-.6.5-1.1 1.1-1.1h4.1v1.4H3.8c-.2 0-.4.2-.4.4v2c0 .2.2.4.4.4h3.4v1.5zM22 5.4v6c0 .6-.5 1.1-1.1 1.1h-4.6V11h4.3V6.2c0-.2-.2-.4-.4-.4h-2c-.2 0-.4.2-.4.4v2c0 .2.2.4.4.4h1.5V10h-2.2c-.6 0-1.1-.5-1.1-1.1V5.4c0-.6.5-1.1 1.1-1.1H21c.5.1 1 .6 1 1.1zm-14.3 0v6c0 .6-.5 1.1-1.1 1.1H2V11h4.3V6.2c0-.2-.2-.4-.4-.4h-2c-.3 0-.5.2-.5.4v2c0 .2.2.4.4.4h1.5V10H3.1c-.6.1-1.1-.4-1.1-1V5.4c0-.6.5-1.1 1.1-1.1h3.5c.6.1 1.1.6 1.1 1.1z"/></symbol>

  <symbol id="pirate" viewBox="0 0 24 24"><path d="M22.4 11.7h-2.6c-1.1 0-1.9-.9-1.9-1.9V8.5c0-2.1-1.2-4-3-5.1-.2-.1-.4-.1-.6 0-.2.1-.3.2-.4.4-.2.8-1 1.4-1.9 1.4s-1.6-.6-1.9-1.4c0-.1-.1-.3-.3-.4-.2-.1-.4-.1-.6 0-1.9 1-3 3-3 5.1v1.3c0 1.1-.9 1.9-1.9 1.9H1.7c-.4 0-.7.3-.7.7 0 3.1 2.4 5.6 5.4 5.8l1 2.1c.1.2.3.3.5.3s.4 0 .6-.2L9.9 19c.6-.6 1.3-.9 2.1-.9s1.6.3 2.1.9l1.4 1.4c.1.1.4.2.6.2.2 0 .4-.2.5-.3l1-2.1c3-.2 5.4-2.7 5.4-5.8 0-.4-.3-.7-.6-.7zm-6.6 7.2l-.8-.7c-.8-.8-1.9-1.3-3-1.3s-2.2.4-3 1.3l-.7.7-.6-1.2.4-.4c1.1-1.1 2.5-1.6 3.9-1.6s2.9.6 3.9 1.6l.4.4-.5 1.2zm1.6-2l-.6-.6c-1.3-1.3-3-2-4.9-2s-3.6.7-4.9 2l-.6.6c-2.2-.1-3.9-1.8-4.2-3.9h1.9c1.8 0 3.2-1.4 3.2-3.2V8.5C7.3 7.1 8 5.8 9 5c.6 1 1.6 1.6 2.8 1.6C13 6.6 14 6 14.6 5c1.1.8 1.7 2.1 1.7 3.5v1.3c0 1.8 1.4 3.2 3.2 3.2h1.9c0 2.1-1.8 3.8-4 3.9z"/><path d="M12.9 12l.8-.8c.3-.3.3-.7 0-.9-.3-.3-.7-.3-.9 0l-.8.8-.8-.8c-.3-.3-.7-.3-.9 0-.3.3-.3.7 0 .9l.8.8-.8.8c-.3.3-.3.7 0 .9.1.1.3.2.5.2s.3-.1.5-.2l.8-.8.8.8c.3.3.7.3.9 0 .3-.3.3-.7 0-.9l-.9-.8z"/></symbol>

</svg>