<?xml version="1.0" encoding="utf-8"?>
<svg 
  x="0px" 
  y="0px"
  width="24px"
  height="24px"
  viewBox="0 0 24 24"
  version="1.1"
  xmlns="http://www.w3.org/2000/svg">

  <style>
    g { display: none }
    g:target { display: inline } 
  </style>

  <symbol id="loader" viewBox="0 0 100 100"><path fill="#fff" d="M31.6 3.5C5.9 13.6-6.6 42.7 3.5 68.4c10.1 25.7 39.2 38.3 64.9 28.1l-3.1-7.9C44 97 19.9 86.6 11.5 65.3c-8.4-21.3 2-45.4 23.3-53.8l-3.2-8z"><animateTransform attributeName="transform" attributeType="XML" type="rotate" dur="2s" from="0 50 50" to="360 50 50" repeatCount="indefinite"/></path><path fill="#fff" d="M42.3 39.6c5.7-4.3 13.9-3.1 18.1 2.7 4.3 5.7 3.1 13.9-2.7 18.1l4.1 5.5c8.8-6.5 10.6-19 4.1-27.7-6.5-8.8-19-10.6-27.7-4.1l4.1 5.5z"><animateTransform attributeName="transform" attributeType="XML" type="rotate" dur="1s" from="0 50 50" to="-360 50 50" repeatCount="indefinite"/></path><path fill="#fff" d="M82 35.7C74.1 18 53.4 10.1 35.7 18S10.1 46.6 18 64.3l7.6-3.4c-6-13.5 0-29.3 13.5-35.3s29.3 0 35.3 13.5l7.6-3.4z"><animateTransform attributeName="transform" attributeType="XML" type="rotate" dur="2s" from="0 50 50" to="360 50 50" repeatCount="indefinite"/></path></symbol>

  <symbol id="server-no-data" viewBox="0 0 24 24"><path fill="currentColor" d="M16 2H4C2.9 2 2 2.9 2 4V20C2 21.11 2.9 22 4 22H16C17.11 22 18 21.11 18 20V4C18 2.9 17.11 2 16 2M16 20H4V4H6V12L8.5 9.75L11 12V4H16V20M20 15H22V17H20V15M22 7V13H20V7H22Z" /></symbol>

  <symbol id="server-loading" viewBox="0 0 24 24"><path d="M13.5 20C13.81 20.75 14.26 21.42 14.82 22H6C4.89 22 4 21.11 4 20V4C4 2.9 4.89 2 6 2H18C19.11 2 20 2.9 20 4V11.03C19.84 11 19.67 11 19.5 11C19 11 18.5 11.07 18 11.18V4H13V12L10.5 9.75L8 12V4H6V20H13.5M19 20C17.62 20 16.5 18.88 16.5 17.5C16.5 17.1 16.59 16.72 16.76 16.38L15.67 15.29C15.25 15.92 15 16.68 15 17.5C15 19.71 16.79 21.5 19 21.5V23L21.25 20.75L19 18.5V20M19 13.5V12L16.75 14.25L19 16.5V15C20.38 15 21.5 16.12 21.5 17.5C21.5 17.9 21.41 18.28 21.24 18.62L22.33 19.71C22.75 19.08 23 18.32 23 17.5C23 15.29 21.21 13.5 19 13.5Z" /></symbol>

   <symbol id="server-error" viewBox="0 0 24 24"><path d="M13,19H14A1,1 0 0,1 15,20H15.73L13,17.27V19M22,20V21.18L20.82,20H22M21,22.72L19.73,24L17.73,22H15A1,1 0 0,1 14,23H10A1,1 0 0,1 9,22H2V20H9A1,1 0 0,1 10,19H11V17H4A1,1 0 0,1 3,16V12A1,1 0 0,1 4,11H6.73L4.73,9H4A1,1 0 0,1 3,8V7.27L1,5.27L2.28,4L21,22.72M4,3H20A1,1 0 0,1 21,4V8A1,1 0 0,1 20,9H9.82L7,6.18V5H5.82L3.84,3C3.89,3 3.94,3 4,3M20,11A1,1 0 0,1 21,12V16A1,1 0 0,1 20,17H17.82L11.82,11H20M9,7H10V5H9V7M9,15H10V14.27L9,13.27V15M5,13V15H7V13H5Z" /></symbol>

  <symbol id="no-search" viewBox="0 0 24 24"><g><rect fill="none" height="24" width="24"/></g><g><g><path d="M15.5,14h-0.79l-0.28-0.27C15.41,12.59,16,11.11,16,9.5C16,5.91,13.09,3,9.5,3C6.08,3,3.28,5.64,3.03,9h2.02 C5.3,6.75,7.18,5,9.5,5C11.99,5,14,7.01,14,9.5S11.99,14,9.5,14c-0.17,0-0.33-0.03-0.5-0.05v2.02C9.17,15.99,9.33,16,9.5,16 c1.61,0,3.09-0.59,4.23-1.57L14,14.71v0.79l5,4.99L20.49,19L15.5,14z"/><polygon points="6.47,10.82 4,13.29 1.53,10.82 0.82,11.53 3.29,14 0.82,16.47 1.53,17.18 4,14.71 6.47,17.18 7.18,16.47 4.71,14 7.18,11.53"/></g></g></symbol>

  <symbol id="dashboard-passive" viewBox="0 0 24 24"><path d="M19 5v2h-4V5h4M9 5v6H5V5h4m10 8v6h-4v-6h4M9 17v2H5v-2h4M21 3h-8v6h8V3zM11 3H3v10h8V3zm10 8h-8v10h8V11zm-10 4H3v6h8v-6z"/></symbol>

  <symbol id="dashboard-active" viewBox="0 0 24 24"><path d="M0 0h24v24H0z" fill="none"/><path d="M3 13h8V3H3v10zm0 8h8v-6H3v6zm10 0h8V11h-8v10zm0-18v6h8V3h-8z"/></symbol>
  
  <symbol id="bookmark-passive" viewBox="0 0 24 24"><path d="M0 0h24v24H0V0z" fill="none"/><path d="M17 3H7c-1.1 0-2 .9-2 2v16l7-3 7 3V5c0-1.1-.9-2-2-2zm0 15l-5-2.18L7 18V5h10v13z"/></symbol>

  <symbol id="bookmark-active" viewBox="0 0 24 24"><path d="M0 0h24v24H0V0z" fill="none"/><path d="M17 3H7c-1.1 0-2 .9-2 2v16l7-3 7 3V5c0-1.1-.9-2-2-2z"/></symbol>

  <symbol id="star-active" viewBox="0 0 24 24"><path d="M0 0h24v24H0z" fill="none"/><path d="M0 0h24v24H0z" fill="none"/><path d="M12 17.27L18.18 21l-1.64-7.03L22 9.24l-7.19-.61L12 2 9.19 8.63 2 9.24l5.46 4.73L5.82 21z"/></symbol>

  <symbol id="star-passive" viewBox="0 0 24 24"><path d="M0 0h24v24H0z" fill="none"/><path d="M22 9.24l-7.19-.62L12 2 9.19 8.63 2 9.24l5.46 4.73L5.82 21 12 17.27 18.18 21l-1.63-7.03L22 9.24zM12 15.4l-3.76 2.27 1-4.28-3.32-2.88 4.38-.38L12 6.1l1.71 4.04 4.38.38-3.32 2.88 1 4.28L12 15.4z"/></symbol>

  <symbol id="share" viewBox="0 0 24 24"><path d="M0 0h24v24H0z" fill="none"/><path d="M18 16.08c-.76 0-1.44.3-1.96.77L8.91 12.7c.05-.23.09-.46.09-.7s-.04-.47-.09-.7l7.05-4.11c.54.5 1.25.81 2.04.81 1.66 0 3-1.34 3-3s-1.34-3-3-3-3 1.34-3 3c0 .24.04.47.09.7L8.04 9.81C7.5 9.31 6.79 9 6 9c-1.66 0-3 1.34-3 3s1.34 3 3 3c.79 0 1.5-.31 2.04-.81l7.12 4.16c-.05.21-.08.43-.08.65 0 1.61 1.31 2.92 2.92 2.92 1.61 0 2.92-1.31 2.92-2.92s-1.31-2.92-2.92-2.92z" fill="#FFFFFF"/></symbol>

  <symbol id="chevron-down" viewBox="0 0 24 24"><path d="M0 0h24v24H0z" fill="none"/><path d="M16.59 8.59L12 13.17 7.41 8.59 6 10l6 6 6-6z" fill="#FFFFFF"/></symbol>

  <symbol id="chevron-down-black" viewBox="0 0 24 24"><path d="M0 0h24v24H0z" fill="none"/><path d="M16.59 8.59L12 13.17 7.41 8.59 6 10l6 6 6-6z" fill="#000000"/></symbol>

  <symbol id="search" viewBox="0 0 24 24"><path d="M0 0h24v24H0z" fill="none"/><path d="M15.5 14h-.79l-.28-.27C15.41 12.59 16 11.11 16 9.5 16 5.91 13.09 3 9.5 3S3 5.91 3 9.5 5.91 16 9.5 16c1.61 0 3.09-.59 4.23-1.57l.27.28v.79l5 4.99L20.49 19l-4.99-5zm-6 0C7.01 14 5 11.99 5 9.5S7.01 5 9.5 5 14 7.01 14 9.5 11.99 14 9.5 14z"/></symbol>

  <symbol id="edit" viewBox="0 0 24 24"><path d="M0 0h24v24H0z" fill="none"/><path d="M3 17.25V21h3.75L17.81 9.94l-3.75-3.75L3 17.25zM20.71 7.04c.39-.39.39-1.02 0-1.41l-2.34-2.34c-.39-.39-1.02-.39-1.41 0l-1.83 1.83 3.75 3.75 1.83-1.83z" fill="#FFFFFF"/></symbol>

  <symbol id="delete" viewBox="0 0 24 24"><path d="M0 0h24v24H0z" fill="none"/><path d="M0 0h24v24H0z" fill="none"/><path d="M6 19c0 1.1.9 2 2 2h8c1.1 0 2-.9 2-2V7H6v12zM19 4h-3.5l-1-1h-5l-1 1H5v2h14V4z"/></symbol>

  <symbol id="tilda" viewBox="0 0 24 24"><path fill="none" d="M-1-1h26v26H-1z"/><path stroke="null" d="M7.925 9.507c-.288.03-.413.046-.543.072-1.162.239-2.097.981-3.338 2.653l-.216.29v.11l.001.111.967.573 1.045.618.079.046.117-.177c.74-1.102 1.248-1.517 1.978-1.616.443-.06 1.048-.01 1.568.133.317.087.576.2 1.114.48.621.328 1.748.892 2.052 1.03.765.346 1.336.53 1.882.606.476.067 1.198.082 1.593.033 1.188-.147 2.123-.78 3.265-2.21.286-.358.68-.893.683-.925.002-.021-.268-.185-1.617-.983-.296-.175-.545-.32-.551-.326-.007-.003-.07.08-.141.187-.072.106-.198.284-.281.397-.694.932-1.197 1.227-2.094 1.227a4.344 4.344 0 01-1.622-.317c-.098-.04-.437-.21-.756-.377-2.253-1.18-3.051-1.5-4.016-1.604a12.278 12.278 0 00-1.17-.031h0z" fill="#FFFFFF"/></symbol>

  <symbol id="plus" viewBox="0 0 24 24"><path d="M0 0h24v24H0z" fill="none"/><path d="M19 13h-6v6h-2v-6H5v-2h6V5h2v6h6v2z"/></symbol>

  <symbol id="favourite" viewBox="0 0 24 24"><path d="M0 0h24v24H0z" fill="none"/><path d="M12 21.35l-1.45-1.32C5.4 15.36 2 12.28 2 8.5 2 5.42 4.42 3 7.5 3c1.74 0 3.41.81 4.5 2.09C13.09 3.81 14.76 3 16.5 3 19.58 3 22 5.42 22 8.5c0 3.78-3.4 6.86-8.55 11.54L12 21.35z" fill="#FFFFFF"/></symbol>

  <symbol id="link" viewBox="0 0 24 24"><path d="M0 0h24v24H0z" fill="none"/><path d="M3.9 12c0-1.71 1.39-3.1 3.1-3.1h4V7H7c-2.76 0-5 2.24-5 5s2.24 5 5 5h4v-1.9H7c-1.71 0-3.1-1.39-3.1-3.1zM8 13h8v-2H8v2zm9-6h-4v1.9h4c1.71 0 3.1 1.39 3.1 3.1s-1.39 3.1-3.1 3.1h-4V17h4c2.76 0 5-2.24 5-5s-2.24-5-5-5z" fill="#FFFFFF"/></symbol>

  <symbol id="close" viewBox="0 0 24 24"><path d="M0 0h24v24H0z" fill="none"/><path d="M19 6.41L17.59 5 12 10.59 6.41 5 5 6.41 10.59 12 5 17.59 6.41 19 12 13.41 17.59 19 19 17.59 13.41 12z"/></symbol>

  <symbol id="cancel" viewBox="0 0 24 24"><path d="M0 0h24v24H0z" fill="none"/><path d="M12 2C6.48 2 2 6.48 2 12s4.48 10 10 10 10-4.48 10-10S17.52 2 12 2zm0 18c-4.42 0-8-3.58-8-8 0-1.85.63-3.55 1.69-4.9L16.9 18.31C15.55 19.37 13.85 20 12 20zm6.31-3.1L7.1 5.69C8.45 4.63 10.15 4 12 4c4.42 0 8 3.58 8 8 0 1.85-.63 3.55-1.69 4.9z"/></symbol>

  <symbol id="add" viewBox="0 0 24 24"><path d="M0 0h24v24H0z" fill="none"/><path d="M19 13h-6v6h-2v-6H5v-2h6V5h2v6h6v2z"/></symbol>

  <symbol id="confirm" viewBox="0 0 24 24"><path d="M0 0h24v24H0z" fill="none"/><path d="M9 16.17L4.83 12l-1.42 1.41L9 19 21 7l-1.41-1.41z"/></symbol>

  <symbol id="star-passive-w" viewBox="0 0 24 24"><path d='M0 0h24v24H0z' fill='none'/><path d='M22 9.24l-7.19-.62L12 2 9.19 8.63 2 9.24l5.46 4.73L5.82 21 12 17.27 18.18 21l-1.63-7.03L22 9.24zM12 15.4l-3.76 2.27 1-4.28-3.32-2.88 4.38-.38L12 6.1l1.71 4.04 4.38.38-3.32 2.88 1 4.28L12 15.4z' fill='white' /></symbol>

  <symbol id="star-active-w" viewBox="0 0 24 24"><path d='M0 0h24v24H0z' fill='none'/><path d='M0 0h24v24H0z' fill='none'/><path d='M12 17.27L18.18 21l-1.64-7.03L22 9.24l-7.19-.61L12 2 9.19 8.63 2 9.24l5.46 4.73L5.82 21z' fill='white'/></symbol>

  <g id="star-passive-b"><path d='M0 0h24v24H0z' fill='none'/><path d='M22 9.24l-7.19-.62L12 2 9.19 8.63 2 9.24l5.46 4.73L5.82 21 12 17.27 18.18 21l-1.63-7.03L22 9.24zM12 15.4l-3.76 2.27 1-4.28-3.32-2.88 4.38-.38L12 6.1l1.71 4.04 4.38.38-3.32 2.88 1 4.28L12 15.4z' fill='#D5D5D5'/></g>

  <g id="star-hovered-b"><path d='M0 0h24v24H0z' fill='none'/><path d='M0 0h24v24H0z' fill='none'/><path d='M12 17.27L18.18 21l-1.64-7.03L22 9.24l-7.19-.61L12 2 9.19 8.63 2 9.24l5.46 4.73L5.82 21z' fill='#D5D5D5'/></g>

  <g id="star-active-b"><path d='M0 0h24v24H0z' fill='none'/><path d='M0 0h24v24H0z' fill='none'/><path d='M12 17.27L18.18 21l-1.64-7.03L22 9.24l-7.19-.61L12 2 9.19 8.63 2 9.24l5.46 4.73L5.82 21z' fill='#900C3F'/></g>

  <g id="favourite-passive"><path d="M0 0h24v24H0z" fill="none"/><path d="M16.5 3c-1.74 0-3.41.81-4.5 2.09C10.91 3.81 9.24 3 7.5 3 4.42 3 2 5.42 2 8.5c0 3.78 3.4 6.86 8.55 11.54L12 21.35l1.45-1.32C18.6 15.36 22 12.28 22 8.5 22 5.42 19.58 3 16.5 3zm-4.4 15.55l-.1.1-.1-.1C7.14 14.24 4 11.39 4 8.5 4 6.5 5.5 5 7.5 5c1.54 0 3.04.99 3.57 2.36h1.87C13.46 5.99 14.96 5 16.5 5c2 0 3.5 1.5 3.5 3.5 0 2.89-3.14 5.74-7.9 10.05z" fill="#D5D5D5"/></g>

  <g id="favourite-hovered"><path d="M0 0h24v24H0z" fill="none"/><path d="M12 21.35l-1.45-1.32C5.4 15.36 2 12.28 2 8.5 2 5.42 4.42 3 7.5 3c1.74 0 3.41.81 4.5 2.09C13.09 3.81 14.76 3 16.5 3 19.58 3 22 5.42 22 8.5c0 3.78-3.4 6.86-8.55 11.54L12 21.35z" fill="#D5D5D5"/></g>

  <g id="favourite-active"><path d="M0 0h24v24H0z" fill="none"/><path d="M12 21.35l-1.45-1.32C5.4 15.36 2 12.28 2 8.5 2 5.42 4.42 3 7.5 3c1.74 0 3.41.81 4.5 2.09C13.09 3.81 14.76 3 16.5 3 19.58 3 22 5.42 22 8.5c0 3.78-3.4 6.86-8.55 11.54L12 21.35z" fill="#900C3F"/></g>

  <g id='checkbox'><path d="M0 0h24v24H0z" fill="none"/><path d="M9 16.17L4.83 12l-1.42 1.41L9 19 21 7l-1.41-1.41z" fill="#900C3F"/></g>

  <symbol id="pirate" viewBox="0 0 24 24"><path d="M8.7 12c-.3.2-.4.5-.4.8 0 .6.6 1.1 1.1 1.1.5 0 1.1-.4 1.1-1.1-.5-.3-1.1-.6-1.8-.8m12.1-.9l.9-3.5s-1.8 0-4.4-1.8-2.7-3.5-5.3-3.5S9.4 4 6.7 5.8 2.3 7.6 2.3 7.6l.9 3.5h.1c-.1.3-.1.6-.1.9 0 3.1 1.6 5.8 4 7.4l-.4.8c5.6 3.6 10.5 0 10.5 0l-.4-.8c2.4-1.6 4-4.3 4-7.4-.1-.3-.1-.7-.1-.9m-9.4-5.7l-1.2-1.2.6-.6L12 4.7l1.2-1.2.6.6-1.2 1.2 1.2 1.2-.6.6L12 6l-1.2 1.2-.6-.6 1.2-1.2M9.6 8.9c.9-.3 1.8-.4 2.4-.4 1.9 0 5.2 1.4 6.9 2.1.1.3.1.5.1.8L9.6 8.9m3.8 9.3c-.6.4-1.2.6-1.9.7-.4-.4-.4-1.1 0-1.4.4-.4 1.1-.5 1.6-.1.2.1.3.5.3.8m5.6-5c-.4 1.8-1.6 3.5-3.1 4.6l-1.3-2.3H9.4L8 17.7c-1.8-1.2-3-3.3-3-5.8 0-.4.1-.9.2-1.3.4-.2 1-.4 1.6-.7l6.2 1.7v2.1c0 .4.4.9.9.9h1.8c.4 0 .9-.4.9-.9v-1.2l2.4.7z"/></symbol>

  <symbol id="steam" viewBox="0 0 24 24"><path d="M11.98 2.63c-4.88 0-8.87 3.79-9.25 8.62l4.98 2.08c.42-.29.93-.46 1.48-.46h.15l2.21-3.24v-.05c0-1.95 1.57-3.53 3.5-3.53s3.5 1.58 3.5 3.53c0 1.95-1.57 3.53-3.5 3.53h-.08l-3.16 2.27v.13c0 1.46-1.18 2.65-2.63 2.65-1.27 0-2.34-.92-2.58-2.13l-3.56-1.48c1.1 3.93 4.68 6.81 8.93 6.81 5.13 0 9.28-4.19 9.28-9.37.02-5.16-4.14-9.36-9.27-9.36"/><path d="M8.55 16.85l-1.14-.48c.2.42.55.78 1.02.98 1 .42 2.16-.06 2.58-1.07a2 2 0 00-1.06-2.6c-.48-.2-1-.19-1.45-.02l1.18.49c.74.31 1.09 1.17.78 1.92-.32.73-1.17 1.09-1.91.78M13.3 9.58c0-.98.78-1.77 1.75-1.77s1.75.79 1.75 1.77-.78 1.77-1.75 1.77-1.75-.79-1.75-1.77m4.08.01c0-1.3-1.05-2.35-2.33-2.35-1.29 0-2.33 1.06-2.33 2.35 0 1.3 1.05 2.35 2.33 2.35s2.33-1.06 2.33-2.35"/></symbol>

  <symbol id="origin" viewBox="0 0 24 24"><path d="M11.97.77c.05.12-.03.23-.1.32-.47.66-.83 1.4-.98 2.19-.06.16-.04.28 0 .3.9-.08 1.92-.07 2.81.12 1.62.33 3.13 1.14 4.29 2.31a8.493 8.493 0 012.3 4.26c.36 1.74.16 3.59-.57 5.21-1.55 3.31-4.15 6.1-7.34 7.87-.1.05-.25.05-.32-.05-.08-.11-.05-.26.03-.36.43-.6.73-1.29.89-2.01.03-.15.07-.3.06-.45-.05-.07-.14-.05-.21-.05-1.55.16-3.14-.12-4.54-.81-1.5-.72-2.77-1.9-3.61-3.34a8.37 8.37 0 01-1.16-4.39c.01-1.41.39-2.8 1.07-4.04C6.16 4.83 8.64 2.28 11.62.63c.13-.05.31 0 .35.14zm-.44 7.95c-.92.12-1.77.66-2.29 1.44a3.29 3.29 0 00-.56 1.79c-.03.85.31 1.71.9 2.32.51.55 1.23.92 1.98 1.01a3.32 3.32 0 003.59-2.32c.42-1.3-.08-2.81-1.18-3.61-.67-.52-1.58-.75-2.44-.63z"/></symbol>

  <symbol id="uplay" viewBox="0 0 24 24"><path d="M9.67 1.63c-.82 0-1.48.66-1.48 1.48s.66 1.48 1.48 1.48 1.48-.66 1.48-1.48-.66-1.48-1.48-1.48zm-5.04.85c-1.83 0-3.21 1.5-3.21 3.49 0 1.81 1.86 2.64 3.12 2.64 1.3 0 3.23-.88 3.23-3.32 0-2.22-2.05-2.81-3.14-2.81zm10.04 1.28c-5.26 0-9.52 4.68-9.52 10.42 0 5.08 6.34 8.19 9.79 8.19 3.61 0 7.64-4.24 7.64-9.93 0-5.5-6-8.68-7.91-8.68zM9.04 9.67h2.12v4.87c0 .35.28.63.63.63h3.81c.35 0 .63-.28.63-.63V9.67h2.12v7.62h-6.56c-1.52 0-2.75-1.23-2.75-2.75V9.67z"/></symbol>

  <symbol id="battlenet" viewBox="0 0 24 24"><path d="M10.5 1.8c-.2 0-.3.1-.4.1l-.3.3c-.4.4-.6.9-.8 1.7-.1.4-.2 1-.2 1.4v.4l-.1-.2c-.1-.2-.3-.4-.4-.6-.3-.2-.5-.4-.8-.4-.2 0-.2 0-.4.1s-.4.3-.5.6c-.3.5-.4 1.3-.4 2.2v.3h-.3c-1.2.1-2.4.3-3.4.5-.3.1-.3.1-.4.2-.2.1-.3.2-.3.2H2c.7-.2 2.5-.3 3.4-.3h.8v.2c.1.7.3 1.6.6 2.5.1.3.3.7.3.9v.1s-.1.1-.1.2c-.9 1.4-1.6 2.9-1.8 4-.1.4-.1.9 0 1.1.1.3.2.6.4.8.5.5 1.5.5 2.8.1.3-.1.6-.2 1-.4l.3-.2-.1.2c-.1.2-.2.5-.3.7v.6c.1.3.3.5.6.6.2.1.6.1.9 0 .6-.1 1.3-.4 1.9-.8l.1-.1.1.2c.2.3.6.9.8 1.3.4.5.7.9 1 1.2.3.3.5.5.7.6.1 0 .2.1.2.1s0-.1-.1-.1c-.7-.8-1.5-2-2.2-3.3-.1-.1-.1-.2-.1-.2l.1-.1c.7-.5 1.6-1.4 2.4-2.5l.1-.2H18c2.1-.1 3.5-.6 3.8-1.4.1-.2.1-.3.1-.5v-.3c-.1-.5-.4-1-1-1.6-.4-.4-.8-.7-1.3-1l-.2-.1h.1c.7 0 1.1-.2 1.4-.4.2-.2.2-.3.2-.6 0-.2-.1-.3-.2-.5-.2-.4-.5-.8-1.1-1.2-.2-.1-.6-.4-.9-.6-.1-.1-.2-.1-.2-.1s.4-.9.5-1c.3-.5.8-1.9 1-2.5V3.2v.1c-.1.4-.3 1-.7 1.7-.4.8-1 1.9-1.2 2.1l-.2-.1c-.6-.2-1.2-.4-2-.6-.1 0-.7-.1-1.1-.1h-.1l-.2-.3c-.9-1.7-1.8-2.9-2.6-3.6-.3-.3-.7-.5-1.1-.6h-.5zm1.4 2.3c.5.1 1.2.8 1.9 1.9l.2.2h-1.1c-.9.1-1.6.3-2.3.6-.2.1-.3.2-.3.2s0-.5.1-.7c.1-1.1.5-1.9 1.1-2.2.1-.1.3-.1.4 0zM8.3 5.9c.1 0 .3.1.4.3.1.2.1.2.2.5 0 .1 0 .4.1.7v.5H7.4v-.2c0-.8.3-1.4.6-1.6 0-.3.2-.3.3-.2zm5.4 1c1.4.1 2.9.5 4.2 1.1l.2.1-.4.6-.4.6-.1-.1c-.3-.5-.8-1-1.2-1.3l-.6-.3h-.1.1c.2.3.4.4.6.7.3.3.4.5.6.7.1.1.2.5.2.5s-.1 0-.3-.1c-.6-.2-1.3-.4-2-.6-1-.3-2.6-.7-3.5-.8h-.2l-.1.1v.8l.3.1c2.3.5 4.6 1.3 6.2 2.1l.2.1v.2c0 1.1-.5 2.4-1.4 3.6-.6.8-1.4 1.6-2.3 2.3-.2.2-.6.4-.6.4l-.6-1.2-.1-.2h.1c.9 0 1.5-.2 2-.5.1 0 .2-.1.2-.2l.1-.1-.2.1c-.4.2-.9.3-1.3.4h-.9l.4-.4c.6-.5 1.1-1 1.6-1.5.9-.9 1.5-1.6 2.2-2.4l.2-.3s-.3-.2-.5-.4c-.1-.1-.2-.1-.2-.1l-.2.2c-.3.3-.7.7-1.1 1.2-1.3 1.3-2.7 2.4-3.8 3.1-.1.1-.2.1-.2.1l-.4-.2c-.8-.5-1.4-1.3-1.9-2.4-.6-1.1-1-2.6-1.2-4v-.5s.3 0 .8.1c.4 0 .8.1.8.1s0 .1-.1.3c-.4.3-.5.7-.6 1-.1.3 0 .9 0 1.1v.1-.1-.2c0-.2.1-.5.1-.7.2-.4.4-.8.6-1.1.1-.2.2-.2.2-.2s.1.2.1.5c.4 2.2 1 3.9 1.6 5.2.1.1.1.3.1.3l.7-.3s0-.2-.1-.3c-.5-1.7-.9-3.3-1.1-4.7-.1-.6-.1-1-.1-1.6v-.3l.1-.1c.8-.4 1.6-.6 2.3-.6.3-.1.6-.1 1 0zm5.1 1.6c.3.2.4.3.6.5.4.4.6.8.4 1.1-.1.1-.1.2-.2.2s-.1 0-.4.1H19l-.4-.2c-.3-.2-.7-.4-.9-.4l.1-.1c.3-.4.6-1 .7-1.1.1-.1.1-.2.1-.2.1 0 .1 0 .2.1zm-.9 3c.7.5 1.2.9 1.5 1.4.1.2.2.3.3.5.1.2.1.2.1.4s0 .3-.1.5c-.3.5-1.3.8-2.7.8h-.2s0-.1.1-.1c.5-.7.9-1.7 1-2.6 0-.2.1-.6.1-.7v-.2c-.2-.1-.1-.1-.1 0zM8 13.4c.3.5.6.9 1.1 1.4.4.4.7.7 1.1.9.1 0 .1.1.1.1s-.5.3-.7.3c-.5.2-.9.3-1.4.3-.6 0-.9-.1-1.2-.3-.1-.2-.2-.4-.2-.7 0-.2 0-.4.1-.7.1-.4.3-1 .6-1.6l.1-.2.2.1c0 .1.1.3.2.4zm4 3.8c.4.7.4.7.4.8-.1 0-.4.2-.6.3-.4.1-.6.2-.8.2h-.3c-.2-.1-.3-.1-.4-.3V18c0-.1 0-.3.1-.5s0-.1.6-.5c.2-.1.4-.3.5-.3l.1-.1c0-.1.2.2.4.6z"/></symbol>

  <symbol id="egs" viewBox="0 0 24 24"><path d="M5.277 2.402a2.704 2.704 0 00-1.169.415 2.59 2.59 0 00-1.155 1.915c-.011.107-.014 2.148-.011 7.157l.004 7.007 4.527 1.357L12 21.611l4.529-1.358 4.531-1.357v-7.058c0-6.33-.003-7.074-.022-7.21A2.592 2.592 0 0018.701 2.4c-.185-.015-13.25-.015-13.424.002zm2.406 2.792v.646H5.957v3.018h1.292V10.163H5.957v3.018h1.726v1.292h-.927c-.852 0-.938-.003-1.051-.026a1.292 1.292 0 01-1.026-1.083c-.011-.078-.014-1.16-.011-3.92l.004-3.813.03-.109c.043-.154.164-.389.262-.507.188-.226.474-.392.765-.445.073-.014.329-.018 1.026-.019l.927-.001v.644zm3.675-.625c.495.086.89.446 1.032.938l.031.109v3.466l-.031.114c-.109.4-.401.725-.782.871-.217.084-.22.086-1.025.091l-.738.005v4.307H8.553V4.546h1.344c1.13.003 1.363.005 1.461.023zm3.231 4.941v4.962h-1.292V4.548h1.292V9.51zm3.674-4.941c.521.091.938.493 1.044 1.006.023.113.026.198.026 1.056v.935h-1.292V5.84h-1.292v7.34h1.292v-1.726H19.334l-.004.981c-.005.977-.005.983-.035 1.083a1.335 1.335 0 01-.906.908l-.122.038h-.863c-.934 0-.9.003-1.112-.076a1.31 1.31 0 01-.787-.851l-.038-.12V5.615l.031-.109c.14-.487.534-.85 1.021-.937.156-.027 1.582-.028 1.744 0zM6.99 15.805a.42.42 0 01.212.192l.039.072.004.281.004.283h-.423v-.356l-.039-.039-.039-.039H5.167l-.033.034-.034.033v1.604l.035.027c.035.029.048.029.829.029.772 0 .795-.001.821-.027.038-.038.042-.068.038-.245l-.004-.156-.213-.004-.215-.004v-.42h.856v.961l-.041.083a.467.467 0 01-.216.212c-.063.029-.071.029-1.029.029h-.966l-.094-.048a.382.382 0 01-.143-.114c-.098-.129-.095-.095-.091-1.157l.004-.952.037-.068a.451.451 0 01.3-.238c.031-.005.473-.009.981-.009l.924.003.077.033zm3.065 1.25c.355.71.646 1.294.646 1.298s-.097.005-.213.004l-.215-.004-.109-.213-.109-.215H8.336l-.109.217-.109.217h-.434l.64-1.282c.352-.704.647-1.289.654-1.298.011-.012.072-.016.223-.016h.209l.645 1.292zm1.943-.426l.432.867.434-.867.434-.867.215.004.213.004.004 1.294.003 1.295h-.434l-.001-.86v-.859l-.322.642-.322.643h-.434l-.322-.643-.322-.642v.859l-.001.86h-.434v-2.596h.428l.429.866zm4.317-.648v.217h-1.726v.652h.87v.422l-.431.003-.432.004-.004.322-.003.324h1.726v.434h-2.162V17.07c0-.71.004-1.294.01-1.298a32.92 32.92 0 011.081-.009h1.071v.218zm2.776-.166c.175.086.242.211.242.451v.15h-.418l-.005-.077c-.005-.063-.014-.083-.043-.109l-.037-.031h-.786c-.775 0-.787 0-.822.029l-.035.027v.264c0 .238.003.265.026.294l.026.033.896.007.894.007.065.033c.086.042.192.16.22.245.019.057.022.128.018.493-.004.413-.005.427-.035.484a.469.469 0 01-.203.201l-.079.039h-1.93l-.092-.045a.384.384 0 01-.145-.113c-.072-.091-.095-.175-.095-.348v-.141l.215.004.213.004.004.077c.003.065.01.083.039.106.034.027.052.027.825.027.772 0 .792 0 .821-.027.041-.038.046-.086.041-.337-.004-.208-.005-.222-.035-.25l-.031-.031-.893-.007c-1.002-.008-.938-.001-1.056-.11a.558.558 0 01-.099-.128l-.037-.068v-.442c0-.434 0-.443.031-.506a.456.456 0 01.306-.242c.031-.005.473-.009.981-.009l.924.003.089.043z"/><path d="M9.845 7.349v1.509h1.292V5.84H9.845v1.509zM8.874 16.848l-.321.642h.639c.351 0 .639-.004.638-.011 0-.005-.143-.294-.317-.642l-.318-.632-.321.643z"/></symbol>

  <symbol id="gog" viewBox="0 0 24 24"><path d="M20.72 21.65H3.28c-1.03 0-1.87-.84-1.87-1.87V4.22c0-1.03.84-1.87 1.87-1.87h17.44c1.03 0 1.87.84 1.87 1.87v15.57c0 1.03-.84 1.86-1.87 1.86zM3.9 17.6c0 .52.42.93.93.93h3.43v-1.25h-2.8c-.17 0-.31-.14-.31-.31V15.1c0-.17.14-.31.31-.31h2.8v-1.25H4.84c-.52 0-.93.42-.93.93v3.13zM8.89 6.4c0-.52-.42-.93-.93-.93H4.84a.924.924 0 00-.94.93v3.11c0 .52.42.93.93.93h2.18V9.2H5.46c-.17 0-.31-.14-.31-.31V7.02c0-.17.14-.31.31-.31h1.87c.17 0 .31.14.31.31v3.74c0 .17-.14.31-.31.31H3.9v1.25h4.05c.52 0 .93-.42.93-.93V6.4zm0 8.09v3.11c0 .52.42.93.93.93h3.11c.52 0 .93-.42.93-.93v-3.11c0-.52-.42-.93-.93-.93H9.82c-.52 0-.93.42-.93.93zm5.6-8.09c0-.52-.42-.93-.93-.93h-3.11c-.52 0-.93.42-.93.93v3.11c0 .52.42.93.93.93h3.11c.52 0 .93-.42.93-.93V6.4zm5.61 0c0-.52-.42-.93-.93-.93h-3.11c-.52 0-.93.42-.93.93v3.11c0 .52.42.93.93.93h2.18V9.2h-1.56c-.17 0-.31-.14-.31-.31V7.02c0-.17.14-.31.31-.31h1.87c.17 0 .31.14.31.31v3.74c0 .17-.14.31-.31.31h-3.43v1.25h4.05c.52 0 .93-.42.93-.93V6.4zm0 7.16h-4.67c-.52 0-.93.42-.93.93v4.05h1.25v-3.43c0-.17.14-.31.31-.31h.62v3.74h1.25V14.8h.93v3.74h1.25v-4.98zM12.93 9.2h-1.87c-.17 0-.31-.14-.31-.31V7.02c0-.17.14-.31.31-.31h1.87c.17 0 .31.14.31.31v1.87c.01.17-.13.31-.31.31zm-2.49 5.6h1.87c.17 0 .31.14.31.31v1.87c0 .17-.14.31-.31.31h-1.87c-.17 0-.31-.14-.31-.31v-1.87c0-.17.14-.31.31-.31z"/></symbol>

  <symbol id="currently_playing" viewBox="0 0 24 24"><path d="M0 0v24h24V0H0zm23 16c0 1.1-.9 2-2 2H3c-1.1 0-2-.9-2-2V8c0-1.1.9-2 2-2h18c1.1 0 2 .9 2 2v8z" fill="none"/><path d="M21 6H3c-1.1 0-2 .9-2 2v8c0 1.1.9 2 2 2h18c1.1 0 2-.9 2-2V8c0-1.1-.9-2-2-2zm-10 7H8v3H6v-3H3v-2h3V8h2v3h3v2zm4.5 2c-.83 0-1.5-.67-1.5-1.5s.67-1.5 1.5-1.5 1.5.67 1.5 1.5-.67 1.5-1.5 1.5zm4-3c-.83 0-1.5-.67-1.5-1.5S18.67 9 19.5 9s1.5.67 1.5 1.5-.67 1.5-1.5 1.5z"/></symbol>

  <symbol id="completed" viewBox="0 0 24 24"><path d="M0 0h24v24H0z" fill="none"/><path d="M18 7l-1.41-1.41-6.34 6.34 1.41 1.41L18 7zm4.24-1.41L11.66 16.17 7.48 12l-1.41 1.41L11.66 19l12-12-1.42-1.41zM.41 13.41L6 19l1.41-1.41L1.83 12 .41 13.41z"/></symbol>

  <symbol id="plan_to_play" viewBox="0 0 24 24"><path d="M0 0h24v24H0V0z" fill="none"/><path d="M4 10.5c-.83 0-1.5.67-1.5 1.5s.67 1.5 1.5 1.5 1.5-.67 1.5-1.5-.67-1.5-1.5-1.5zm0-6c-.83 0-1.5.67-1.5 1.5S3.17 7.5 4 7.5 5.5 6.83 5.5 6 4.83 4.5 4 4.5zm0 12c-.83 0-1.5.68-1.5 1.5s.68 1.5 1.5 1.5 1.5-.68 1.5-1.5-.67-1.5-1.5-1.5zM7 19h14v-2H7v2zm0-6h14v-2H7v2zm0-8v2h14V5H7z"/></symbol>

  <symbol id="dropped" viewBox="0 0 24 24"><path d="M0 0h24v24H0z" fill="none"/><path d="M12 2C6.48 2 2 6.48 2 12s4.48 10 10 10 10-4.48 10-10S17.52 2 12 2zM4 12c0-4.42 3.58-8 8-8 1.85 0 3.55.63 4.9 1.69L5.69 16.9C4.63 15.55 4 13.85 4 12zm8 8c-1.85 0-3.55-.63-4.9-1.69L18.31 7.1C19.37 8.45 20 10.15 20 12c0 4.42-3.58 8-8 8z"/></symbol>

  <symbol id="continuously_playing" viewBox="0 0 24 24"><path d="M0 0h24v24H0z" fill="none"/><path d="M4 18l8.5-6L4 6v12zm9-12v12l8.5-6L13 6z"/></symbol>

  <symbol id="on_hold" viewBox="0 0 24 24"><g><rect fill="none" height="24" width="24"/></g><g><path d="M6,2l0.01,6L10,12l-3.99,4.01L6,22h12v-6l-4-4l4-3.99V2H6z M16,16.5V20H8v-3.5l4-4L16,16.5z"/></g></symbol>

</svg>